<svg width="617" height="117" viewBox="0 0 617 117" fill="none" xmlns="http://www.w3.org/2000/svg">
<path d="M79.0096 29.9552C76.9189 27.1328 74.3056 24.9899 71.1696 23.5264C68.0336 22.0629 64.5317 21.3312 60.664 21.3312C58.8869 21.3312 57.0053 21.5925 55.0192 22.1152C53.0331 22.5333 51.2037 23.3173 49.5312 24.4672C47.9632 25.5125 46.6043 26.8715 45.4544 28.544C44.4091 30.2165 43.8864 32.2549 43.8864 34.6592C43.8864 37.7952 45.0885 40.304 47.4928 42.1856C50.0016 43.9627 53.4512 45.6352 57.8416 47.2032C62.6501 48.8757 66.936 50.7573 70.6992 52.848C74.4624 54.8341 77.6507 57.1339 80.264 59.7472C82.8773 62.3605 84.8635 65.3397 86.2224 68.6848C87.5813 71.9253 88.2608 75.6363 88.2608 79.8176C88.2608 86.5077 86.8496 92.2048 84.0272 96.9088C81.3093 101.613 77.7552 105.481 73.3648 108.512C68.9744 111.439 64.0613 113.582 58.6256 114.941C53.1899 116.3 47.8064 116.979 42.4752 116.979C38.5029 116.979 34.5307 116.613 30.5584 115.882C26.5861 115.15 22.7707 114.105 19.112 112.746C15.4533 111.282 12.056 109.453 8.92 107.258C5.784 105.062 3.1184 102.554 0.9232 99.7312L20.2096 84.0512C22.4048 87.3963 25.6453 90.1141 29.9312 92.2048C34.2171 94.2955 38.5552 95.3408 42.9456 95.3408C45.2453 95.3408 47.4405 95.1317 49.5312 94.7136C51.7264 94.1909 53.6603 93.4069 55.3328 92.3616C57.0053 91.2117 58.312 89.8005 59.2528 88.128C60.2981 86.3509 60.8208 84.2603 60.8208 81.856C60.8208 77.9883 59.2528 74.9568 56.1168 72.7616C52.9808 70.4619 48.7995 68.4235 43.5728 66.6464C39.9141 65.392 36.4645 63.9808 33.224 62.4128C30.088 60.8448 27.3179 58.9109 24.9136 56.6112C22.6139 54.3115 20.7323 51.5936 19.2688 48.4576C17.9099 45.2171 17.2304 41.3493 17.2304 36.8544C17.2304 31.2096 18.3803 26.1397 20.68 21.6448C23.0843 17.0453 26.3248 13.1776 30.4016 10.0416C34.4784 6.80106 39.2347 4.34453 44.6704 2.67199C50.1061 0.894923 55.9077 0.00638873 62.0752 0.00638873C65.3157 0.00638873 68.6085 0.319991 71.9536 0.947195C75.2987 1.57439 78.4869 2.51519 81.5184 3.7696C84.6544 4.91946 87.5291 6.38293 90.1424 8.16C92.7557 9.93706 94.9509 11.9755 96.728 14.2752L79.0096 29.9552ZM97.3711 54.8864L100.821 35.9136H113.208L116.814 15.216H141.275L137.669 35.9136H154.29L150.84 54.8864H134.69L129.045 85.4624C128.94 86.1941 128.836 86.9781 128.731 87.8144C128.731 88.5461 128.731 89.1733 128.731 89.696C128.731 92.3093 129.463 94.0864 130.926 95.0272C132.39 95.968 134.376 96.4384 136.885 96.4384C138.139 96.4384 139.341 96.3339 140.491 96.1248C141.746 95.9157 142.843 95.7067 143.784 95.4976L141.432 113.53C139.968 114.157 137.878 114.679 135.16 115.098C132.547 115.62 130.038 115.882 127.634 115.882C120.107 115.882 114.149 114.366 109.758 111.334C105.472 108.303 103.33 103.494 103.33 96.9088C103.33 95.6544 103.382 94.2432 103.486 92.6752C103.695 91.0027 103.957 89.4347 104.27 87.9712L110.229 54.8864H97.3711ZM195.725 116.195C190.08 116.195 184.801 115.411 179.888 113.843C175.08 112.275 170.898 110.028 167.344 107.101C163.895 104.069 161.125 100.463 159.034 96.2816C157.048 91.9957 156.055 87.1872 156.055 81.856C156.055 75.3749 157.152 69.2075 159.348 63.3536C161.543 57.4997 164.679 52.3776 168.756 47.9872C172.937 43.5968 177.954 40.0949 183.808 37.4816C189.662 34.8683 196.3 33.5616 203.722 33.5616C209.471 33.5616 214.802 34.3456 219.716 35.9136C224.629 37.4816 228.862 39.7813 232.416 42.8128C235.97 45.7397 238.741 49.3461 240.727 53.632C242.817 57.8133 243.863 62.5696 243.863 67.9008C243.863 74.4864 242.765 80.7061 240.57 86.56C238.375 92.4139 235.186 97.536 231.005 101.926C226.824 106.317 221.754 109.819 215.796 112.432C209.942 114.941 203.252 116.195 195.725 116.195ZM219.088 70.5664C219.088 65.8624 217.625 61.9424 214.698 58.8064C211.876 55.6704 207.851 54.1024 202.624 54.1024C199.279 54.1024 196.248 54.7819 193.53 56.1408C190.812 57.4997 188.512 59.3291 186.631 61.6288C184.749 63.9285 183.286 66.5941 182.24 69.6256C181.195 72.6571 180.672 75.8453 180.672 79.1904C180.672 83.8944 182.084 87.8144 184.906 90.9504C187.728 93.9819 191.753 95.4976 196.98 95.4976C200.325 95.4976 203.356 94.8704 206.074 93.616C208.792 92.2571 211.092 90.4277 212.973 88.128C214.959 85.8283 216.475 83.1627 217.52 80.1312C218.566 77.0997 219.088 73.9115 219.088 70.5664ZM288.547 47.36C291.056 43.3877 294.035 40.1472 297.485 37.6384C301.039 35.1296 305.272 33.8752 310.185 33.8752C311.126 33.8752 312.067 33.9275 313.008 34.032C314.053 34.1365 314.889 34.2933 315.517 34.5024L311.44 56.768C310.29 56.4544 309.192 56.2453 308.147 56.1408C307.102 56.0363 306.109 55.984 305.168 55.984C301.509 55.984 298.425 56.6112 295.917 57.8656C293.408 59.12 291.317 60.688 289.645 62.5696C288.077 64.3467 286.875 66.2805 286.038 68.3712C285.307 70.4619 284.784 72.2912 284.47 73.8592L277.414 114H252.326L263.459 52.064C263.877 50.0779 264.295 47.5168 264.713 44.3808C265.236 41.2448 265.602 38.4224 265.811 35.9136H289.645C289.645 36.4363 289.592 37.2203 289.488 38.2656C289.383 39.2064 289.227 40.2517 289.017 41.4016C288.913 42.4469 288.756 43.5445 288.547 44.6944C288.443 45.7397 288.338 46.6283 288.233 47.36H288.547ZM335.303 81.6992C335.198 82.1173 335.146 82.5877 335.146 83.1104C335.146 85.3056 335.616 87.2917 336.557 89.0688C337.603 90.7413 338.909 92.2048 340.477 93.4592C342.15 94.6091 343.979 95.4976 345.965 96.1248C348.056 96.752 350.199 97.0656 352.394 97.0656C356.366 97.0656 359.868 96.3339 362.9 94.8704C365.931 93.4069 368.649 91.4208 371.053 88.912L386.89 101.299C381.872 106.63 376.28 110.498 370.112 112.902C363.945 115.202 357.307 116.352 350.199 116.352C344.763 116.352 339.693 115.568 334.989 114C330.39 112.537 326.365 110.341 322.916 107.414C319.466 104.383 316.748 100.672 314.762 96.2816C312.776 91.8912 311.783 86.8736 311.783 81.2288C311.783 74.5387 312.933 68.3189 315.232 62.5696C317.637 56.7157 320.877 51.6459 324.954 47.36C329.135 43.0741 334.101 39.7291 339.85 37.3248C345.599 34.816 351.924 33.5616 358.823 33.5616C363.945 33.5616 368.597 34.2933 372.778 35.7568C377.064 37.2203 380.723 39.3632 383.754 42.1856C386.786 44.9035 389.138 48.3008 390.81 52.3776C392.483 56.4544 393.319 61.1584 393.319 66.4896C393.319 68.3712 393.11 70.7755 392.692 73.7024C392.378 76.5248 391.908 79.1904 391.28 81.6992H335.303ZM370.896 66.3328C371.001 65.8101 371.053 65.2875 371.053 64.7648C371.053 64.2421 371.053 63.7195 371.053 63.1968C371.053 59.7472 369.799 56.8725 367.29 54.5728C364.886 52.2731 361.384 51.1232 356.784 51.1232C353.962 51.1232 351.401 51.6459 349.101 52.6912C346.906 53.632 344.972 54.8341 343.3 56.2976C341.627 57.7611 340.268 59.3813 339.223 61.1584C338.178 62.9355 337.446 64.6603 337.028 66.3328H370.896ZM403.027 83.1104L406.633 63.1968H446.147L442.697 83.1104H403.027ZM501.078 25.408L485.398 114H459.37L474.893 25.408H443.846L447.923 2.9856H535.418L531.498 25.408H501.078ZM598.41 29.9552C596.319 27.1328 593.706 24.9899 590.57 23.5264C587.434 22.0629 583.932 21.3312 580.064 21.3312C578.287 21.3312 576.405 21.5925 574.419 22.1152C572.433 22.5333 570.604 23.3173 568.931 24.4672C567.363 25.5125 566.004 26.8715 564.854 28.544C563.809 30.2165 563.286 32.2549 563.286 34.6592C563.286 37.7952 564.489 40.304 566.893 42.1856C569.402 43.9627 572.851 45.6352 577.242 47.2032C582.05 48.8757 586.336 50.7573 590.099 52.848C593.862 54.8341 597.051 57.1339 599.664 59.7472C602.277 62.3605 604.263 65.3397 605.622 68.6848C606.981 71.9253 607.661 75.6363 607.661 79.8176C607.661 86.5077 606.25 92.2048 603.427 96.9088C600.709 101.613 597.155 105.481 592.765 108.512C588.374 111.439 583.461 113.582 578.026 114.941C572.59 116.3 567.206 116.979 561.875 116.979C557.903 116.979 553.931 116.613 549.958 115.882C545.986 115.15 542.171 114.105 538.512 112.746C534.853 111.282 531.456 109.453 528.32 107.258C525.184 105.062 522.518 102.554 520.323 99.7312L539.61 84.0512C541.805 87.3963 545.045 90.1141 549.331 92.2048C553.617 94.2955 557.955 95.3408 562.346 95.3408C564.645 95.3408 566.841 95.1317 568.931 94.7136C571.126 94.1909 573.06 93.4069 574.733 92.3616C576.405 91.2117 577.712 89.8005 578.653 88.128C579.698 86.3509 580.221 84.2603 580.221 81.856C580.221 77.9883 578.653 74.9568 575.517 72.7616C572.381 70.4619 568.199 68.4235 562.973 66.6464C559.314 65.392 555.865 63.9808 552.624 62.4128C549.488 60.8448 546.718 58.9109 544.314 56.6112C542.014 54.3115 540.132 51.5936 538.669 48.4576C537.31 45.2171 536.63 41.3493 536.63 36.8544C536.63 31.2096 537.78 26.1397 540.08 21.6448C542.484 17.0453 545.725 13.1776 549.802 10.0416C553.878 6.80106 558.635 4.34453 564.07 2.67199C569.506 0.894923 575.308 0.00638873 581.475 0.00638873C584.716 0.00638873 588.009 0.319991 591.354 0.947195C594.699 1.57439 597.887 2.51519 600.918 3.7696C604.054 4.91946 606.929 6.38293 609.542 8.16C612.156 9.93706 614.351 11.9755 616.128 14.2752L598.41 29.9552Z" fill="black"/>
</svg>
